<?xml version="1.0"?>

<svg version="1.1" id="Ebene_1" xmlns="http://www.w3.org/2000/svg" xmlns:xlink="http://www.w3.org/1999/xlink" x="0px" y="0px" viewBox="0 0 500 100" style="enable-background:new 0 0 500 100;" xml:space="preserve">

<g>
&#x9;<path class="st0" fill="#7D9B38" d="M128.334,29.108h7.361v32.702h-7.361V47.937H115.97v13.874h-7.361V29.108h7.361v12.505h12.364V29.108z"></path>
&#x9;<path class="st0" fill="#7D9B38" d="M151.692,36.328c2.076,0,3.806,0.236,5.191,0.708c1.384,0.472,2.493,1.149,3.327,2.029&#xA;&#x9;&#x9;c0.833,0.881,1.423,1.951,1.77,3.208c0.346,1.259,0.519,2.659,0.519,4.2v14.628c-1.007,0.221-2.407,0.48-4.2,0.779&#xA;&#x9;&#x9;s-3.964,0.448-6.512,0.448c-1.604,0-3.06-0.142-4.365-0.425c-1.306-0.283-2.431-0.747-3.375-1.392&#xA;&#x9;&#x9;c-0.943-0.645-1.667-1.486-2.17-2.524c-0.504-1.038-0.755-2.312-0.755-3.822c0-1.447,0.291-2.674,0.873-3.681&#xA;&#x9;&#x9;c0.582-1.006,1.361-1.809,2.336-2.406s2.092-1.03,3.351-1.298c1.258-0.267,2.564-0.401,3.917-0.401c0.912,0,1.722,0.04,2.43,0.118&#xA;&#x9;&#x9;c0.708,0.079,1.281,0.181,1.722,0.307v-0.661c0-1.195-0.362-2.154-1.085-2.878c-0.724-0.724-1.982-1.085-3.775-1.085&#xA;&#x9;&#x9;c-1.196,0-2.376,0.087-3.539,0.26c-1.165,0.173-2.171,0.417-3.021,0.731l-0.896-5.663c0.409-0.125,0.92-0.259,1.534-0.401&#xA;&#x9;&#x9;s1.282-0.267,2.005-0.377c0.724-0.11,1.487-0.205,2.289-0.283C150.064,36.368,150.874,36.328,151.692,36.328z M152.259,56.903&#xA;&#x9;&#x9;c0.691,0,1.352-0.016,1.982-0.047c0.629-0.031,1.132-0.078,1.51-0.142v-5.332c-0.283-0.063-0.708-0.125-1.274-0.189&#xA;&#x9;&#x9;c-0.566-0.062-1.085-0.094-1.557-0.094c-0.661,0-1.282,0.04-1.864,0.118c-0.583,0.079-1.093,0.229-1.534,0.449&#xA;&#x9;&#x9;c-0.441,0.22-0.787,0.519-1.038,0.896c-0.252,0.377-0.377,0.849-0.377,1.416c0,1.102,0.369,1.864,1.109,2.289&#xA;&#x9;&#x9;C149.954,56.69,150.968,56.903,152.259,56.903z"></path>
&#x9;<path class="st0" fill="#7D9B38" d="M190.057,60.961c-1.196,0.347-2.737,0.669-4.625,0.968c-1.888,0.298-3.87,0.448-5.946,0.448&#xA;&#x9;&#x9;c-2.108,0-3.862-0.283-5.262-0.85c-1.4-0.566-2.509-1.36-3.327-2.383c-0.818-1.022-1.4-2.242-1.746-3.657&#xA;&#x9;&#x9;c-0.347-1.416-0.519-2.973-0.519-4.672V36.989h7.031v12.977c0,2.265,0.298,3.901,0.896,4.908c0.597,1.007,1.714,1.51,3.351,1.51&#xA;&#x9;&#x9;c0.503,0,1.038-0.023,1.604-0.071c0.566-0.047,1.069-0.102,1.51-0.165V36.989h7.031V60.961z"></path>
&#x9;<path class="st0" fill="#7D9B38" d="M203.789,56.761c1.29,0,2.202-0.125,2.737-0.377c0.535-0.251,0.802-0.739,0.802-1.463&#xA;&#x9;&#x9;c0-0.566-0.347-1.062-1.039-1.486c-0.692-0.425-1.746-0.904-3.162-1.439c-1.102-0.409-2.1-0.833-2.997-1.274&#xA;&#x9;&#x9;c-0.896-0.44-1.66-0.968-2.289-1.581c-0.629-0.613-1.117-1.345-1.463-2.194c-0.347-0.849-0.519-1.871-0.519-3.067&#xA;&#x9;&#x9;c0-2.328,0.865-4.168,2.596-5.521c1.729-1.353,4.105-2.029,7.125-2.029c1.51,0,2.957,0.134,4.341,0.401&#xA;&#x9;&#x9;c1.384,0.268,2.485,0.559,3.303,0.873L212,43.076c-0.818-0.283-1.707-0.535-2.666-0.755c-0.96-0.22-2.037-0.331-3.232-0.331&#xA;&#x9;&#x9;c-2.203,0-3.303,0.614-3.303,1.841c0,0.283,0.047,0.535,0.142,0.755c0.094,0.22,0.283,0.433,0.566,0.637&#xA;&#x9;&#x9;c0.283,0.205,0.668,0.426,1.156,0.664c0.487,0.238,1.109,0.5,1.864,0.784c1.541,0.572,2.815,1.135,3.822,1.689&#xA;&#x9;&#x9;c1.006,0.555,1.8,1.155,2.383,1.797c0.582,0.644,0.991,1.358,1.227,2.143c0.236,0.784,0.354,1.695,0.354,2.73&#xA;&#x9;&#x9;c0,2.449-0.92,4.301-2.761,5.557c-1.84,1.255-4.444,1.883-7.81,1.883c-2.203,0-4.035-0.189-5.498-0.566s-2.478-0.691-3.044-0.944&#xA;&#x9;&#x9;l1.18-5.71c1.195,0.472,2.422,0.842,3.681,1.109C201.319,56.628,202.562,56.761,203.789,56.761z"></path>
&#x9;<path class="st0" fill="#7D9B38" d="M252.771,61.008c-0.63,0.189-1.353,0.37-2.171,0.542c-0.818,0.173-1.675,0.322-2.572,0.449&#xA;&#x9;&#x9;c-0.896,0.125-1.809,0.228-2.737,0.307c-0.928,0.078-1.817,0.118-2.667,0.118c-2.045,0-3.869-0.299-5.474-0.896&#xA;&#x9;&#x9;s-2.958-1.455-4.059-2.572c-1.102-1.116-1.943-2.469-2.524-4.058c-0.583-1.588-0.873-3.374-0.873-5.356&#xA;&#x9;&#x9;c0-2.013,0.251-3.83,0.755-5.451c0.503-1.62,1.227-2.997,2.171-4.129c0.944-1.133,2.1-1.998,3.468-2.596&#xA;&#x9;&#x9;c1.369-0.597,2.933-0.896,4.695-0.896c0.975,0,1.848,0.094,2.619,0.283c0.771,0.189,1.549,0.457,2.336,0.802V26.324l7.031-1.133&#xA;&#x9;&#x9;V61.008z M236.868,49.211c0,2.171,0.487,3.917,1.463,5.238c0.975,1.321,2.422,1.982,4.341,1.982c0.629,0,1.211-0.024,1.746-0.071&#xA;&#x9;&#x9;c0.535-0.047,0.975-0.102,1.321-0.166V43.407c-0.441-0.283-1.015-0.519-1.723-0.708c-0.708-0.188-1.423-0.283-2.147-0.283&#xA;&#x9;&#x9;C238.535,42.416,236.868,44.681,236.868,49.211z"></path>
&#x9;<path class="st0" fill="#7D9B38" d="M258.197,49.588c0-2.202,0.338-4.129,1.015-5.781c0.676-1.651,1.564-3.027,2.666-4.129&#xA;&#x9;&#x9;c1.101-1.101,2.367-1.935,3.799-2.501c1.431-0.566,2.902-0.85,4.412-0.85c3.523,0,6.307,1.078,8.353,3.232&#xA;&#x9;&#x9;c2.045,2.155,3.067,5.325,3.067,9.509c0,0.409-0.016,0.857-0.047,1.345c-0.032,0.488-0.063,0.92-0.095,1.298h-15.95&#xA;&#x9;&#x9;c0.157,1.447,0.833,2.596,2.029,3.445c1.195,0.85,2.8,1.274,4.813,1.274c1.29,0,2.556-0.118,3.799-0.354&#xA;&#x9;&#x9;c1.242-0.236,2.257-0.526,3.043-0.873l0.944,5.71c-0.377,0.188-0.881,0.377-1.51,0.566c-0.63,0.189-1.33,0.354-2.1,0.496&#xA;&#x9;&#x9;c-0.771,0.142-1.597,0.26-2.478,0.354c-0.881,0.094-1.762,0.142-2.643,0.142c-2.234,0-4.176-0.33-5.828-0.991&#xA;&#x9;&#x9;c-1.652-0.661-3.021-1.564-4.106-2.713c-1.085-1.148-1.887-2.508-2.406-4.082C258.457,53.112,258.197,51.414,258.197,49.588z&#xA;&#x9;&#x9; M274.713,46.898c-0.032-0.597-0.134-1.18-0.307-1.746c-0.173-0.566-0.441-1.069-0.802-1.51c-0.362-0.44-0.818-0.802-1.368-1.085&#xA;&#x9;&#x9;c-0.551-0.283-1.235-0.425-2.053-0.425c-0.787,0-1.463,0.134-2.029,0.401c-0.566,0.268-1.038,0.622-1.416,1.062&#xA;&#x9;&#x9;c-0.378,0.441-0.669,0.952-0.873,1.534c-0.205,0.583-0.354,1.172-0.448,1.77H274.713z"></path>
&#x9;<path class="st0" fill="#7D9B38" d="M294.061,56.761c1.29,0,2.202-0.125,2.737-0.377c0.535-0.251,0.802-0.739,0.802-1.463&#xA;&#x9;&#x9;c0-0.566-0.347-1.062-1.039-1.486c-0.692-0.425-1.746-0.904-3.162-1.439c-1.102-0.409-2.1-0.833-2.997-1.274&#xA;&#x9;&#x9;c-0.896-0.44-1.66-0.968-2.289-1.581c-0.629-0.613-1.117-1.345-1.463-2.194c-0.347-0.849-0.519-1.871-0.519-3.067&#xA;&#x9;&#x9;c0-2.328,0.865-4.168,2.596-5.521c1.729-1.353,4.105-2.029,7.125-2.029c1.51,0,2.957,0.134,4.341,0.401&#xA;&#x9;&#x9;c1.384,0.268,2.485,0.559,3.304,0.873l-1.228,5.474c-0.818-0.283-1.707-0.535-2.666-0.755c-0.96-0.22-2.037-0.331-3.232-0.331&#xA;&#x9;&#x9;c-2.203,0-3.303,0.614-3.303,1.841c0,0.283,0.047,0.535,0.142,0.755c0.094,0.22,0.283,0.433,0.566,0.637&#xA;&#x9;&#x9;c0.283,0.205,0.668,0.426,1.156,0.664c0.487,0.238,1.109,0.5,1.864,0.784c1.541,0.572,2.815,1.135,3.822,1.689&#xA;&#x9;&#x9;c1.007,0.555,1.801,1.155,2.383,1.797c0.582,0.644,0.991,1.358,1.228,2.143c0.235,0.784,0.354,1.695,0.354,2.73&#xA;&#x9;&#x9;c0,2.449-0.92,4.301-2.761,5.557c-1.84,1.255-4.444,1.883-7.81,1.883c-2.203,0-4.035-0.189-5.498-0.566s-2.478-0.691-3.044-0.944&#xA;&#x9;&#x9;l1.18-5.71c1.195,0.472,2.422,0.842,3.681,1.109C291.591,56.628,292.834,56.761,294.061,56.761z"></path>
&#x9;<path class="st0" fill="#7D9B38" d="M330.537,56.195c1.038,0,1.895-0.086,2.571-0.259c0.677-0.173,1.219-0.409,1.628-0.708&#xA;&#x9;&#x9;c0.409-0.298,0.692-0.652,0.85-1.062c0.157-0.409,0.236-0.865,0.236-1.369c0-1.069-0.504-1.958-1.511-2.666&#xA;&#x9;&#x9;c-1.007-0.708-2.736-1.47-5.19-2.289c-1.07-0.377-2.14-0.81-3.209-1.297s-2.029-1.101-2.879-1.84&#xA;&#x9;&#x9;c-0.849-0.739-1.541-1.636-2.076-2.69c-0.535-1.054-0.802-2.336-0.802-3.846c0-1.51,0.283-2.87,0.85-4.082&#xA;&#x9;&#x9;c0.565-1.211,1.368-2.242,2.406-3.091c1.038-0.849,2.296-1.502,3.775-1.958c1.479-0.456,3.146-0.685,5.002-0.685&#xA;&#x9;&#x9;c2.201,0,4.105,0.236,5.71,0.708s2.926,0.991,3.964,1.557l-2.124,5.804c-0.912-0.472-1.927-0.888-3.043-1.25&#xA;&#x9;&#x9;c-1.117-0.361-2.462-0.542-4.035-0.542c-1.762,0-3.028,0.244-3.799,0.731c-0.771,0.488-1.156,1.235-1.156,2.242&#xA;&#x9;&#x9;c0,0.598,0.142,1.102,0.425,1.51c0.283,0.409,0.685,0.779,1.203,1.109c0.52,0.331,1.117,0.63,1.794,0.897&#xA;&#x9;&#x9;c0.676,0.268,1.423,0.542,2.241,0.826c1.699,0.629,3.177,1.25,4.436,1.864c1.258,0.614,2.305,1.33,3.139,2.147&#xA;&#x9;&#x9;c0.833,0.818,1.454,1.777,1.863,2.878c0.409,1.102,0.614,2.438,0.614,4.011c0,3.052-1.07,5.419-3.209,7.102&#xA;&#x9;&#x9;c-2.14,1.683-5.364,2.524-9.674,2.524c-1.447,0-2.754-0.087-3.917-0.26c-1.164-0.173-2.194-0.385-3.091-0.637&#xA;&#x9;&#x9;s-1.668-0.519-2.312-0.802c-0.646-0.283-1.188-0.55-1.628-0.802l2.076-5.852c0.975,0.535,2.178,1.015,3.61,1.439&#xA;&#x9;&#x9;C326.706,55.982,328.46,56.195,330.537,56.195z"></path>
&#x9;<path class="st0" fill="#7D9B38" d="M348.374,30.807l7.031-1.133v7.314h8.447v5.852h-8.447v8.73c0,1.479,0.26,2.659,0.778,3.54&#xA;&#x9;&#x9;c0.52,0.881,1.564,1.321,3.139,1.321c0.755,0,1.533-0.071,2.336-0.212c0.802-0.142,1.533-0.338,2.194-0.59l0.99,5.474&#xA;&#x9;&#x9;c-0.849,0.347-1.793,0.646-2.831,0.897s-2.312,0.377-3.822,0.377c-1.919,0-3.509-0.26-4.767-0.779s-2.265-1.242-3.02-2.171&#xA;&#x9;&#x9;c-0.755-0.927-1.282-2.053-1.581-3.374c-0.3-1.321-0.448-2.784-0.448-4.388V30.807z"></path>
&#x9;<path class="st0" fill="#7D9B38" d="M377.253,29.816c0,1.291-0.417,2.305-1.25,3.044c-0.834,0.739-1.817,1.109-2.95,1.109&#xA;&#x9;&#x9;c-1.132,0-2.116-0.37-2.949-1.109c-0.834-0.739-1.25-1.753-1.25-3.044c0-1.29,0.416-2.304,1.25-3.043&#xA;&#x9;&#x9;c0.833-0.739,1.817-1.109,2.949-1.109c1.133,0,2.116,0.37,2.95,1.109C376.836,27.512,377.253,28.526,377.253,29.816z&#xA;&#x9;&#x9; M376.593,61.811h-7.031V36.989h7.031V61.811z"></path>
&#x9;<path class="st0" fill="#7D9B38" d="M393.957,25.191c1.321,0,2.532,0.134,3.634,0.401c1.101,0.268,1.95,0.527,2.548,0.778l-1.368,5.616&#xA;&#x9;&#x9;c-0.63-0.283-1.314-0.496-2.053-0.637c-0.739-0.142-1.424-0.212-2.053-0.212c-0.85,0-1.565,0.118-2.147,0.354&#xA;&#x9;&#x9;s-1.038,0.559-1.368,0.967c-0.33,0.409-0.566,0.897-0.708,1.463c-0.142,0.566-0.212,1.18-0.212,1.84v1.227h8.683v5.852h-8.683&#xA;&#x9;&#x9;v18.97h-7.031V35.667c0-3.209,0.903-5.757,2.713-7.645C387.72,26.135,390.401,25.191,393.957,25.191z"></path>
&#x9;<path class="st0" fill="#7D9B38" d="M402.876,30.807l7.031-1.133v7.314h8.447v5.852h-8.447v8.73c0,1.479,0.26,2.659,0.778,3.54&#xA;&#x9;&#x9;c0.52,0.881,1.564,1.321,3.139,1.321c0.755,0,1.533-0.071,2.336-0.212c0.802-0.142,1.533-0.338,2.194-0.59l0.99,5.474&#xA;&#x9;&#x9;c-0.849,0.347-1.793,0.646-2.831,0.897s-2.312,0.377-3.822,0.377c-1.919,0-3.509-0.26-4.767-0.779s-2.265-1.242-3.02-2.171&#xA;&#x9;&#x9;c-0.755-0.927-1.282-2.053-1.581-3.374c-0.3-1.321-0.448-2.784-0.448-4.388V30.807z"></path>
&#x9;<path class="st0" fill="#7D9B38" d="M422.883,49.588c0-2.202,0.338-4.129,1.015-5.781c0.677-1.651,1.565-3.027,2.667-4.129&#xA;&#x9;&#x9;c1.101-1.101,2.366-1.935,3.799-2.501c1.431-0.566,2.901-0.85,4.412-0.85c3.522,0,6.307,1.078,8.353,3.232&#xA;&#x9;&#x9;c2.044,2.155,3.067,5.325,3.067,9.509c0,0.409-0.017,0.857-0.048,1.345c-0.031,0.488-0.063,0.92-0.094,1.298h-15.95&#xA;&#x9;&#x9;c0.157,1.447,0.833,2.596,2.029,3.445c1.195,0.85,2.799,1.274,4.812,1.274c1.29,0,2.556-0.118,3.799-0.354s2.258-0.526,3.044-0.873&#xA;&#x9;&#x9;l0.944,5.71c-0.378,0.188-0.882,0.377-1.511,0.566c-0.629,0.189-1.329,0.354-2.1,0.496c-0.771,0.142-1.597,0.26-2.478,0.354&#xA;&#x9;&#x9;s-1.762,0.142-2.643,0.142c-2.234,0-4.176-0.33-5.828-0.991c-1.651-0.661-3.02-1.564-4.105-2.713&#xA;&#x9;&#x9;c-1.085-1.148-1.888-2.508-2.406-4.082C423.143,53.112,422.883,51.414,422.883,49.588z M439.399,46.898&#xA;&#x9;&#x9;c-0.031-0.597-0.134-1.18-0.307-1.746c-0.173-0.566-0.44-1.069-0.802-1.51c-0.362-0.44-0.818-0.802-1.369-1.085&#xA;&#x9;&#x9;s-1.234-0.425-2.053-0.425c-0.786,0-1.463,0.134-2.029,0.401c-0.565,0.268-1.038,0.622-1.415,1.062&#xA;&#x9;&#x9;c-0.378,0.441-0.669,0.952-0.873,1.534c-0.205,0.583-0.354,1.172-0.448,1.77H439.399z"></path>
&#x9;<path class="st0" fill="#7D9B38" d="M451.622,37.838c1.194-0.346,2.736-0.668,4.624-0.967c1.888-0.299,3.87-0.449,5.946-0.449&#xA;&#x9;&#x9;c2.107,0,3.861,0.276,5.262,0.826c1.399,0.551,2.508,1.329,3.326,2.336s1.399,2.202,1.746,3.586c0.346,1.384,0.52,2.926,0.52,4.625&#xA;&#x9;&#x9;v14.015h-7.031V48.645c0-2.265-0.3-3.87-0.896-4.813c-0.599-0.944-1.716-1.416-3.351-1.416c-0.504,0-1.038,0.024-1.604,0.071&#xA;&#x9;&#x9;c-0.566,0.047-1.07,0.103-1.51,0.165v19.159h-7.031V37.838z"></path>
&#x9;<path class="st0" fill="#7D9B38" d="M486.541,56.761c1.29,0,2.202-0.125,2.737-0.377c0.534-0.251,0.802-0.739,0.802-1.463&#xA;&#x9;&#x9;c0-0.566-0.347-1.062-1.038-1.486c-0.692-0.425-1.746-0.904-3.161-1.439c-1.102-0.409-2.101-0.833-2.997-1.274&#xA;&#x9;&#x9;c-0.896-0.44-1.659-0.968-2.288-1.581c-0.63-0.613-1.117-1.345-1.463-2.194c-0.347-0.849-0.52-1.871-0.52-3.067&#xA;&#x9;&#x9;c0-2.328,0.865-4.168,2.596-5.521c1.729-1.353,4.105-2.029,7.125-2.029c1.511,0,2.957,0.134,4.342,0.401&#xA;&#x9;&#x9;c1.384,0.268,2.485,0.559,3.304,0.873l-1.228,5.474c-0.818-0.283-1.707-0.535-2.666-0.755c-0.96-0.22-2.037-0.331-3.232-0.331&#xA;&#x9;&#x9;c-2.202,0-3.304,0.614-3.304,1.841c0,0.283,0.048,0.535,0.142,0.755c0.095,0.22,0.283,0.433,0.566,0.637s0.668,0.426,1.156,0.664&#xA;&#x9;&#x9;c0.487,0.238,1.109,0.5,1.864,0.784c1.541,0.572,2.815,1.135,3.822,1.689c1.007,0.555,1.801,1.155,2.383,1.797&#xA;&#x9;&#x9;c0.582,0.644,0.991,1.358,1.228,2.143c0.235,0.784,0.354,1.695,0.354,2.73c0,2.449-0.92,4.301-2.761,5.557&#xA;&#x9;&#x9;c-1.84,1.255-4.443,1.883-7.81,1.883c-2.202,0-4.035-0.189-5.498-0.566s-2.478-0.691-3.043-0.944l1.18-5.71&#xA;&#x9;&#x9;c1.195,0.472,2.422,0.842,3.681,1.109C484.071,56.628,485.314,56.761,486.541,56.761z"></path>
</g>
<g>
&#x9;<g>
&#x9;&#x9;<path class="st1" fill="#666666" d="M121.308,89.774h-12.859V72.298h12.79v2.253h-10.32v5.335h10.066v2.23h-10.066v5.427h10.389V89.774z"></path>
&#x9;&#x9;<path class="st1" fill="#666666" d="M135.755,82.876v6.898h-2.424v-6.416c0-1.863-1.085-3.104-2.724-3.104c-2.055,0-3.417,1.38-3.417,4.254v5.266&#xA;&#x9;&#x9;&#x9;h-2.401V78.369h2.401v1.402c0.924-1.104,2.263-1.725,3.971-1.725C133.908,78.047,135.755,80.024,135.755,82.876z"></path>
&#x9;&#x9;<path class="st1" fill="#666666" d="M150.711,91.062c-0.023,3.38-2.724,5.381-6.256,5.381c-2.747,0-4.64-1.035-5.587-2.736l1.985-1.61&#xA;&#x9;&#x9;&#x9;c0.831,1.311,1.801,2.001,3.602,2.001c2.124,0,3.833-1.219,3.833-3.38v-2.23c-1.016,1.012-2.424,1.609-4.156,1.609&#xA;&#x9;&#x9;&#x9;c-2.978,0-5.679-2.415-5.679-6.024c0-3.587,2.701-6.025,5.679-6.025c1.731,0,3.14,0.598,4.156,1.633v-1.311h2.424V91.062z&#xA;&#x9;&#x9;&#x9; M148.288,84.072c0-2.392-1.847-3.909-3.763-3.909c-2.078,0-3.717,1.518-3.717,3.909c0,2.415,1.639,3.909,3.717,3.909&#xA;&#x9;&#x9;&#x9;C146.44,87.981,148.288,86.486,148.288,84.072z"></path>
&#x9;&#x9;<path class="st1" fill="#666666" d="M165.944,89.774h-2.424v-1.288c-1.016,1.012-2.424,1.609-4.156,1.609c-2.978,0-5.679-2.415-5.679-6.024&#xA;&#x9;&#x9;&#x9;c0-3.587,2.701-6.025,5.679-6.025c1.731,0,3.14,0.598,4.156,1.633v-1.311h2.424V89.774z M163.521,84.072&#xA;&#x9;&#x9;&#x9;c0-2.392-1.847-3.909-3.763-3.909c-2.078,0-3.717,1.518-3.717,3.909c0,2.415,1.639,3.909,3.717,3.909&#xA;&#x9;&#x9;&#x9;C161.673,87.981,163.521,86.486,163.521,84.072z"></path>
&#x9;&#x9;<path class="st1" fill="#666666" d="M181.177,91.062c-0.023,3.38-2.724,5.381-6.256,5.381c-2.747,0-4.64-1.035-5.587-2.736l1.985-1.61&#xA;&#x9;&#x9;&#x9;c0.831,1.311,1.801,2.001,3.602,2.001c2.124,0,3.833-1.219,3.833-3.38v-2.23c-1.016,1.012-2.424,1.609-4.156,1.609&#xA;&#x9;&#x9;&#x9;c-2.978,0-5.679-2.415-5.679-6.024c0-3.587,2.701-6.025,5.679-6.025c1.731,0,3.14,0.598,4.156,1.633v-1.311h2.424V91.062z&#xA;&#x9;&#x9;&#x9; M178.753,84.072c0-2.392-1.847-3.909-3.763-3.909c-2.078,0-3.717,1.518-3.717,3.909c0,2.415,1.639,3.909,3.717,3.909&#xA;&#x9;&#x9;&#x9;C176.906,87.981,178.753,86.486,178.753,84.072z"></path>
&#x9;&#x9;<path class="st1" fill="#666666" d="M188.053,74.322c0,0.828-0.646,1.449-1.524,1.449c-0.9,0-1.547-0.621-1.547-1.449&#xA;&#x9;&#x9;&#x9;c0-0.805,0.646-1.518,1.547-1.518C187.407,72.804,188.053,73.517,188.053,74.322z M185.329,89.774V78.369h2.401v11.405H185.329z"></path>
&#x9;&#x9;<path class="st1" fill="#666666" d="M202.549,84.646h-9.281c0.231,2.116,1.778,3.38,3.463,3.38c1.27,0,2.562-0.368,3.371-1.978l2.147,0.46&#xA;&#x9;&#x9;&#x9;c-0.946,2.391-2.978,3.587-5.518,3.587c-3.117,0-5.841-2.391-5.841-6.001c0-3.633,2.701-6.048,5.933-6.048&#xA;&#x9;&#x9;&#x9;c3.071,0,5.61,2.346,5.726,5.772V84.646z M193.338,82.945h6.741c-0.369-1.862-1.685-2.782-3.255-2.782&#xA;&#x9;&#x9;&#x9;C195.323,80.163,193.707,81.105,193.338,82.945z"></path>
&#x9;&#x9;<path class="st1" fill="#666666" d="M213.119,78.323l-0.161,2.3c-0.185-0.023-0.462-0.023-0.67-0.023c-2.909,0-4.34,2.023-4.34,5.151v4.024&#xA;&#x9;&#x9;&#x9;h-2.401V78.369h2.401v2.345c0.877-1.518,2.309-2.483,4.364-2.483C212.588,78.231,212.819,78.231,213.119,78.323z"></path>
&#x9;&#x9;<path class="st1" fill="#666666" d="M219.234,85.888c0,1.242,0.669,1.955,1.731,1.955c0.601,0,1.339-0.23,1.939-0.621l0.716,2&#xA;&#x9;&#x9;&#x9;c-1.062,0.644-1.87,0.874-2.817,0.874c-2.516,0-3.971-1.495-3.971-4.024v-5.726h-2.47v-1.978h2.47v-4.415l2.401-0.736v5.151h4.733&#xA;&#x9;&#x9;&#x9;v1.978h-4.733V85.888z"></path>
&#x9;&#x9;<path class="st1" fill="#666666" d="M235.159,80.347v9.428h-2.401v-9.428h-2.332v-1.978h2.332v-3.036c0-2.575,1.663-4.3,4.225-4.3&#xA;&#x9;&#x9;&#x9;c0.716,0,1.339,0.138,1.962,0.414l-0.577,1.955c-0.416-0.161-0.854-0.23-1.224-0.23c-1.201,0-1.985,0.874-1.985,2.162v3.036h4.502&#xA;&#x9;&#x9;&#x9;v1.978H235.159z"></path>
&#x9;&#x9;<path class="st1" fill="#666666" d="M252.587,89.774h-2.401v-1.403c-0.923,1.104-2.263,1.725-3.948,1.725c-2.771,0-4.594-1.978-4.594-4.852&#xA;&#x9;&#x9;&#x9;v-6.875h2.401v6.393c0,1.862,1.085,3.127,2.748,3.127c2.055,0,3.394-1.379,3.394-4.254v-5.266h2.401V89.774z M243.029,74.253&#xA;&#x9;&#x9;&#x9;c0-0.782,0.646-1.472,1.523-1.472c0.877,0,1.524,0.69,1.524,1.472c0,0.874-0.646,1.495-1.524,1.495&#xA;&#x9;&#x9;&#x9;C243.676,75.748,243.029,75.126,243.029,74.253z M248.27,74.253c0-0.782,0.646-1.472,1.523-1.472s1.524,0.69,1.524,1.472&#xA;&#x9;&#x9;&#x9;c0,0.874-0.646,1.495-1.524,1.495S248.27,75.126,248.27,74.253z"></path>
&#x9;&#x9;<path class="st1" fill="#666666" d="M264.149,78.323l-0.161,2.3c-0.185-0.023-0.462-0.023-0.67-0.023c-2.909,0-4.34,2.023-4.34,5.151v4.024&#xA;&#x9;&#x9;&#x9;h-2.401V78.369h2.401v2.345c0.877-1.518,2.309-2.483,4.364-2.483C263.619,78.231,263.85,78.231,264.149,78.323z"></path>
&#x9;&#x9;<path class="st1" fill="#666666" d="M285.524,89.774h-12.859V72.298h12.79v2.253h-10.32v5.335h10.066v2.23h-10.066v5.427h10.389V89.774z"></path>
&#x9;&#x9;<path class="st1" fill="#666666" d="M299.972,82.876v6.898h-2.424v-6.416c0-1.863-1.085-3.104-2.724-3.104c-2.055,0-3.417,1.38-3.417,4.254v5.266&#xA;&#x9;&#x9;&#x9;h-2.401V78.369h2.401v1.402c0.924-1.104,2.263-1.725,3.971-1.725C298.125,78.047,299.972,80.024,299.972,82.876z"></path>
&#x9;&#x9;<path class="st1" fill="#666666" d="M314.928,91.062c-0.022,3.38-2.724,5.381-6.256,5.381c-2.748,0-4.641-1.035-5.587-2.736l1.985-1.61&#xA;&#x9;&#x9;&#x9;c0.831,1.311,1.801,2.001,3.602,2.001c2.124,0,3.832-1.219,3.832-3.38v-2.23c-1.016,1.012-2.424,1.609-4.155,1.609&#xA;&#x9;&#x9;&#x9;c-2.979,0-5.68-2.415-5.68-6.024c0-3.587,2.701-6.025,5.68-6.025c1.731,0,3.14,0.598,4.155,1.633v-1.311h2.424V91.062z&#xA;&#x9;&#x9;&#x9; M312.504,84.072c0-2.392-1.847-3.909-3.763-3.909c-2.078,0-3.718,1.518-3.718,3.909c0,2.415,1.64,3.909,3.718,3.909&#xA;&#x9;&#x9;&#x9;C310.657,87.981,312.504,86.486,312.504,84.072z"></path>
&#x9;&#x9;<path class="st1" fill="#666666" d="M330.16,89.774h-2.424v-1.288c-1.016,1.012-2.424,1.609-4.155,1.609c-2.979,0-5.68-2.415-5.68-6.024&#xA;&#x9;&#x9;&#x9;c0-3.587,2.701-6.025,5.68-6.025c1.731,0,3.14,0.598,4.155,1.633v-1.311h2.424V89.774z M327.736,84.072&#xA;&#x9;&#x9;&#x9;c0-2.392-1.847-3.909-3.763-3.909c-2.078,0-3.718,1.518-3.718,3.909c0,2.415,1.64,3.909,3.718,3.909&#xA;&#x9;&#x9;&#x9;C325.89,87.981,327.736,86.486,327.736,84.072z"></path>
&#x9;&#x9;<path class="st1" fill="#666666" d="M345.393,91.062c-0.022,3.38-2.724,5.381-6.256,5.381c-2.748,0-4.641-1.035-5.587-2.736l1.985-1.61&#xA;&#x9;&#x9;&#x9;c0.831,1.311,1.801,2.001,3.602,2.001c2.124,0,3.832-1.219,3.832-3.38v-2.23c-1.016,1.012-2.424,1.609-4.155,1.609&#xA;&#x9;&#x9;&#x9;c-2.979,0-5.68-2.415-5.68-6.024c0-3.587,2.701-6.025,5.68-6.025c1.731,0,3.14,0.598,4.155,1.633v-1.311h2.424V91.062z&#xA;&#x9;&#x9;&#x9; M342.969,84.072c0-2.392-1.847-3.909-3.763-3.909c-2.078,0-3.718,1.518-3.718,3.909c0,2.415,1.64,3.909,3.718,3.909&#xA;&#x9;&#x9;&#x9;C341.122,87.981,342.969,86.486,342.969,84.072z"></path>
&#x9;&#x9;<path class="st1" fill="#666666" d="M352.269,74.322c0,0.828-0.646,1.449-1.523,1.449c-0.9,0-1.547-0.621-1.547-1.449&#xA;&#x9;&#x9;&#x9;c0-0.805,0.646-1.518,1.547-1.518C351.622,72.804,352.269,73.517,352.269,74.322z M349.545,89.774V78.369h2.4v11.405H349.545z"></path>
&#x9;&#x9;<path class="st1" fill="#666666" d="M366.766,84.646h-9.281c0.23,2.116,1.777,3.38,3.463,3.38c1.27,0,2.562-0.368,3.371-1.978l2.146,0.46&#xA;&#x9;&#x9;&#x9;c-0.946,2.391-2.978,3.587-5.518,3.587c-3.116,0-5.841-2.391-5.841-6.001c0-3.633,2.701-6.048,5.934-6.048&#xA;&#x9;&#x9;&#x9;c3.07,0,5.609,2.346,5.726,5.772V84.646z M357.554,82.945h6.741c-0.369-1.862-1.686-2.782-3.255-2.782&#xA;&#x9;&#x9;&#x9;C359.539,80.163,357.923,81.105,357.554,82.945z"></path>
&#x9;&#x9;<path class="st1" fill="#666666" d="M377.336,78.323l-0.162,2.3c-0.185-0.023-0.462-0.023-0.669-0.023c-2.909,0-4.341,2.023-4.341,5.151v4.024&#xA;&#x9;&#x9;&#x9;h-2.4V78.369h2.4v2.345c0.878-1.518,2.309-2.483,4.363-2.483C376.805,78.231,377.035,78.231,377.336,78.323z"></path>
&#x9;&#x9;<path class="st1" fill="#666666" d="M383.451,85.888c0,1.242,0.67,1.955,1.731,1.955c0.601,0,1.339-0.23,1.939-0.621l0.716,2&#xA;&#x9;&#x9;&#x9;c-1.062,0.644-1.87,0.874-2.816,0.874c-2.517,0-3.971-1.495-3.971-4.024v-5.726h-2.471v-1.978h2.471v-4.415l2.4-0.736v5.151h4.732&#xA;&#x9;&#x9;&#x9;v1.978h-4.732V85.888z"></path>
&#x9;&#x9;<path class="st1" fill="#666666" d="M401.019,84.646h-9.281c0.23,2.116,1.777,3.38,3.463,3.38c1.27,0,2.562-0.368,3.371-1.978l2.146,0.46&#xA;&#x9;&#x9;&#x9;c-0.946,2.391-2.978,3.587-5.518,3.587c-3.116,0-5.841-2.391-5.841-6.001c0-3.633,2.701-6.048,5.934-6.048&#xA;&#x9;&#x9;&#x9;c3.07,0,5.609,2.346,5.726,5.772V84.646z M391.807,82.945h6.741c-0.369-1.862-1.686-2.782-3.255-2.782&#xA;&#x9;&#x9;&#x9;C393.792,80.163,392.176,81.105,391.807,82.945z"></path>
&#x9;</g>
</g>
<path id="Bildmarke_1_" class="st2" fill="#7D9B38" d="M45.391,1C20.873,1,1,20.872,1,45.385c0,24.515,19.873,44.397,44.391,44.397&#xA;&#x9;c24.517,0,44.39-19.882,44.39-44.397C89.781,20.872,69.908,1,45.391,1z M43.83,86.945c-2.864,0-5.19-2.325-5.19-5.199&#xA;&#x9;c0-2.859,2.327-5.19,5.19-5.19c3.514,0,5.198,2.87,5.198,5.19C49.027,84.62,46.697,86.945,43.83,86.945z M64.255,38.683&#xA;&#x9;c-1.462-1.67-2.768-0.464-4.444,1.54c-0.925,1.102-4.683,3.765-8.103,4.369c-0.816,2.71-3.537,9.491-3.371,10.623&#xA;&#x9;c1.814-0.762,2.484-2.737,3.202-3.882c2.843-4.523,9.26-2.826,12.588-3.386c-1.726,3.614-5.794,7.793-10.852,7.415&#xA;&#x9;c-4.452-0.331-5.104,3.173-5.36,5.075c-0.799,6.003,1.791,13.489,2.21,16.266c-1.321-1.718-3.403-2.983-6.297-2.983&#xA;&#x9;c-2.711,0-5.104,1.353-6.555,3.415c-0.241-2.419,2.158-10.03,2.554-11.225c0.862-2.594-0.029-4.577-2.47-4.293&#xA;&#x9;c-5.817,0.671-8.724-5.968-8.233-9.464c4.808,0.046,9.593,3.415,9.593,7.397c0,1.137,2.309,1.694,2.309,1.694&#xA;&#x9;c0.023-0.079,1.881-8.253,2.29-9.834c-4.106-1.997-5.988-5.231-7.685-7.99c-0.571-0.741-1.185-1.185-3.114-1.523&#xA;&#x9;c-3.064,3.831-10.485,3.391-12.693,1.064c2.892-5.096,11.433-3.33,15.076-1.686c-0.535-0.67-0.77-0.878-1.12-1.576&#xA;&#x9;c-7.57-0.269-11.133-6.671-11.972-11.412c8.979,0.054,11.261,4.038,13.018,10.6c0.357,0.917,0.843,1.566,1.108,1.722&#xA;&#x9;c0.296-0.749,1.078-1.181,0.121-2.452c-2.041-2.753-0.587-5.758,1.925-8.63c2.778,3.643,2.376,7.871-0.139,10.055&#xA;&#x9;c-1.22,1.277-1.139,2.137-0.608,3.092c2.72,3.801,7.73,4.369,7.73,4.369c1.648-3.736,7.731-20.985-0.405-20.529&#xA;&#x9;c-5.104,1.883-12.01-0.974-14.809-6.406C41.511,17.249,47.846,25.083,49,27.339c-0.416-1.801-0.089-4.821-2.72-5.871&#xA;&#x9;c-10.65-5.502-8.181-12.62-9.679-17.637c11.244,2.642,14.374,9.12,13.303,18.012c-0.416,4.213,1.394,2.847,1.581,1.215&#xA;&#x9;c-0.587-9.692,9.185-10.762,11.534-12.858c1.64,5.054-1.357,12.996-10.116,13.898c-0.371,0.683-1.642,2.124-1.606,3.17&#xA;&#x9;c0.03,1.079,1.644,8.28,0.99,13.03c3.45-0.305,7.231-2.348,7.829-3.391c0.077-0.476,0.077-2.265-0.8-2.3&#xA;&#x9;c-4.276-0.224-2.872-6.475-2.872-8.132c3.198,0.83,4.676,4.14,4.185,6.968c-0.26,1.491,0.517,3.195,0.517,3.195&#xA;&#x9;c0.709-0.823,1.12-1.102,0.966-2.554c-0.239-5.006,6.247-7.533,10.77-9.085c0.168,2.788-3.344,11.518-8.776,10.614&#xA;&#x9;c-0.755-0.127-1.592,1.045-2.25,1.576c2.298-0.825,8.535-2.459,12.169,0.736C69.795,41.268,66.381,40.856,64.255,38.683z"></path>
</svg>